<svg xmlns="http://www.w3.org/2000/svg" xmlns:xlink="http://www.w3.org/1999/xlink" viewBox="0,0,256,256" width="50px" height="50px"><g fill="#c8aa6e" fill-rule="nonzero" stroke="none" stroke-width="1" stroke-linecap="butt" stroke-linejoin="miter" stroke-miterlimit="10" stroke-dasharray="" stroke-dashoffset="0" font-family="none" font-weight="none" font-size="none" text-anchor="none" style="mix-blend-mode: normal"><g transform="scale(5.12,5.12)"><path d="M11,3c-0.379,0 -0.72453,0.21373 -0.89453,0.55273c-0.169,0.339 -0.13425,0.74388 0.09375,1.04688l2.80078,3.73242v33.33594l-3.80078,3.73242c-0.227,0.303 -0.26175,0.70788 -0.09375,1.04688c0.17,0.339 0.51553,0.55273 0.89453,0.55273h29c0.304,0 0.59125,-0.138 0.78125,-0.375l5,-5c0.24,-0.301 0.28514,-0.71159 0.11914,-1.05859c-0.167,-0.345 -0.51539,-0.56641 -0.90039,-0.56641h-21v-36c0,-0.553 -0.447,-1 -1,-1zM25,7v2c9.925,0 18,8.075 18,18c0,4.144 -1.4212,7.954 -3.7832,11h2.46875c2.089,-3.159 3.31445,-6.937 3.31445,-11c0,-11.028 -8.972,-20 -20,-20zM25,11v27h11.58984c2.726,-2.87 4.41016,-6.738 4.41016,-11c0,-8.822 -7.178,-16 -16,-16zM11,12.74023c-3.456,3.394 -5.6927,8.02488 -5.9707,13.17188c-0.019,0.36 -0.0293,0.72289 -0.0293,1.08789c0,0.59 0.02617,1.17495 0.07617,1.75195c0.426,4.88 2.61683,9.26081 5.92383,12.50781v-2.97266c-2.497,-3.09 -4,-7.01411 -4,-11.28711c0,-4.273 1.503,-8.19711 4,-11.28711zM11,19.27148c-1.271,2.293 -2,4.92652 -2,7.72852c0,2.802 0.729,5.43552 2,7.72852z"></path></g></g></svg>